<?xml version="1.0" encoding="utf-8"?>
<!-- Generator: Adobe Illustrator 24.2.1, SVG Export Plug-In . SVG Version: 6.00 Build 0)  -->
<svg version="1.1" id="Layer_1" xmlns="http://www.w3.org/2000/svg" xmlns:xlink="http://www.w3.org/1999/xlink" x="0px" y="0px"
	 viewBox="0 0 383.94 384" style="enable-background:new 0 0 383.94 384;" xml:space="preserve">
<path d="M311.91,180.07c-3.77,29.57-7.41,58.08-11.02,86.61c-2.28,18.01-4.29,36.05-6.8,54.03c-2.56,18.36-15.45,29.52-34.19,29.59
	c-39.72,0.14-79.44,0.15-119.16-0.01c-18.78-0.08-31.69-11.99-34.05-30.87c-5.41-43.4-10.75-86.81-16.15-130.21
	c-0.36-2.85-1.06-5.65-1.72-9.09c-3.95,2.01-7.07,4.86-10.23,4.89c-4.13,0.04-9.53-0.94-12.14-3.65c-4.06-4.23-2.08-9.65,2.55-13.06
	c3.31-2.44,7.21-4.08,10.86-6.06c37.02-20.06,74.12-39.99,111-60.31c6.68-3.68,12.09-4.01,18.95-0.23
	c38.96,21.46,78.16,42.48,117.27,63.67c1.82,0.99,4.6,1.7,5.17,3.22c1.51,4.01,4.03,9.51,2.45,12.3c-1.63,2.87-7.63,4.33-11.72,4.35
	C319.62,185.22,316.25,182.22,311.91,180.07z M200.54,189.74c-20.72,0.01-37.18,16.63-37.1,37.46
	c0.08,20.06,16.76,36.96,36.68,37.18c20.34,0.23,37.55-16.79,37.63-37.21C237.84,206.41,221.26,189.73,200.54,189.74z"/>
</svg>
